<svg width="387" height="404" viewBox="0 0 387 404" fill="none" xmlns="http://www.w3.org/2000/svg">
<mask id="mask0_111_21" style="mask-type:luminance" maskUnits="userSpaceOnUse" x="-8" y="-18" width="429" height="434">
<path d="M-8 404.792L3.04167 -17.287L420.676 -6.36112L409.634 415.718L-8 404.792Z" fill="white"/>
</mask>
<g mask="url(#mask0_111_21)">
<mask id="mask1_111_21" style="mask-type:luminance" maskUnits="userSpaceOnUse" x="-8" y="-18" width="429" height="434">
<path d="M-8 404.792L3.04167 -17.287L420.676 -6.36112L409.634 415.718L-8 404.792Z" fill="white"/>
</mask>
<g mask="url(#mask1_111_21)">
<path d="M53.3796 366.616C26.1111 351.319 25.375 317.593 28.6991 289.403C32.4352 257.903 24.4537 241.407 9.70834 214.366C-2.25925 192.421 -1.32869 172.431 10.9908 149.824C25.9445 122.509 51.2639 128.843 68.0232 106.838C83.6065 86.4213 77.7176 54.8333 92.1991 33.0926C106.769 11.2731 131.097 5.91203 156.046 7.7824C190.042 10.3704 221.435 28.7731 256.12 23.4444C284.065 19.1528 313.366 -9.16667 342.333 6.09259C396.519 34.6528 348.301 118.139 355.167 161.907C362.662 209.259 412.944 282.037 365.431 326.167C344.449 345.708 312.153 334.009 287.157 333.759C252.38 333.417 241.56 345.042 218.287 368.741C195.926 391.569 184.606 409.829 151.94 399.741C132.361 393.718 128.694 366.722 115.81 361.361C99.7176 354.866 68.8426 375.366 53.3796 366.616Z" fill="#007EC5"/>
</g>
</g>
</svg>
